<?xml version="1.0" encoding="UTF-8"?>
<svg width="299px" height="276px" viewBox="0 0 299 276" version="1.1" xmlns="http://www.w3.org/2000/svg" xmlns:xlink="http://www.w3.org/1999/xlink">
    <!-- Generator: Sketch 49.3 (51167) - http://www.bohemiancoding.com/sketch -->
    <title>logo</title>
    <desc>Created with Sketch.</desc>
    <defs></defs>
    <g id="Page-1" stroke="none" stroke-width="1" fill="none" fill-rule="evenodd">
        <g id="Desktop" transform="translate(-8.000000, -8.000000)" stroke="#9B9B9B" stroke-width="8">
            <g id="logo" transform="translate(12.000000, 12.000000)">
                <g id="Group">
                    <polygon id="Stroke-1" stroke-linejoin="round" points="11.589 102.793 0 54.84 97.805 0 242.894 46.897 290.182 148.636 251.713 180.409 132.135 126.924"></polygon>
                    <path d="M153,194.141 L245.028,177" id="Stroke-2"></path>
                    <path d="M64.021,154.708 L35,107" id="Stroke-3"></path>
                    <polygon id="Stroke-4" stroke-linejoin="round" points="195.799 187 166.617 250.231 153 194.696"></polygon>
                    <polyline id="Stroke-5" stroke-linejoin="round" points="87.903 193.974 32 239.218 60.9 149.631 87.903 193.974 100.433 122"></polyline>
                    <path d="M129,126.027 L242.791,46" id="Stroke-6"></path>
                    <path d="M98,0 L129.293,126.924" id="Stroke-7"></path>
                    <path d="M100,120 L122.505,227.693" id="Stroke-8"></path>
                    <polyline id="Stroke-9" stroke-linejoin="round" points="100.142 120 113.166 184.712 60 267.644 121.657 228.939 183.997 149.956"></polyline>
                </g>
            </g>
        </g>
    </g>
</svg>